<svg xmlns="http://www.w3.org/2000/svg" width="1024" height="1024" viewBox="0 0 100 100">
  <defs>
      <linearGradient id="top" x1="20" y1="30" x2="86" y2="30" gradientUnits="userSpaceOnUse">
        <stop offset="0" stop-color="#6C63FF" />
        <stop offset="1" stop-color="#FF6584" />
      </linearGradient>
      <linearGradient id="bot" x1="80" y1="70" x2="14" y2="70" gradientUnits="userSpaceOnUse">
        <stop offset="0" stop-color="#FF6584" />
        <stop offset="1" stop-color="#6C63FF" />
      </linearGradient></defs>
  <rect width="100" height="100" rx="22.5" ry="22.5" fill="#1A1A2E" />
  <path d="M 30 50 Q 22 50 22 42 Q 22 26 38 26 L 60 26 L 60 16 L 86 32 L 60 48 L 60 38 L 38 38 Q 32 38 32 42 Q 32 50 38 50 Z" fill="url(#top)" />
  <path d="M 70 50 Q 78 50 78 58 Q 78 74 62 74 L 40 74 L 40 84 L 14 68 L 40 52 L 40 62 L 62 62 Q 68 62 68 58 Q 68 50 62 50 Z" fill="url(#bot)" opacity="1" />
</svg>